<svg width="30" height="30" viewBox="0 0 30 30" fill="none" xmlns="http://www.w3.org/2000/svg">
<path d="M9.04967 0.833328H20.9497C25.483 0.833328 29.1663 4.51666 29.1663 9.04999V20.95C29.1663 23.1292 28.3007 25.2191 26.7597 26.7601C25.2188 28.301 23.1289 29.1667 20.9497 29.1667H9.04967C4.51634 29.1667 0.833008 25.4833 0.833008 20.95V9.04999C0.833008 6.8708 1.69869 4.78086 3.23961 3.23993C4.78054 1.69901 6.87048 0.833328 9.04967 0.833328ZM8.76634 3.66666C7.41374 3.66666 6.11653 4.20398 5.1601 5.16042C4.20366 6.11685 3.66634 7.41406 3.66634 8.76666V21.2333C3.66634 24.0525 5.94717 26.3333 8.76634 26.3333H21.233C22.5856 26.3333 23.8828 25.796 24.8393 24.8396C25.7957 23.8831 26.333 22.5859 26.333 21.2333V8.76666C26.333 5.94749 24.0522 3.66666 21.233 3.66666H8.76634ZM22.4372 5.79166C22.9068 5.79166 23.3572 5.97823 23.6893 6.31033C24.0214 6.64242 24.208 7.09284 24.208 7.56249C24.208 8.03215 24.0214 8.48257 23.6893 8.81466C23.3572 9.14676 22.9068 9.33333 22.4372 9.33333C21.9675 9.33333 21.5171 9.14676 21.185 8.81466C20.8529 8.48257 20.6663 8.03215 20.6663 7.56249C20.6663 7.09284 20.8529 6.64242 21.185 6.31033C21.5171 5.97823 21.9675 5.79166 22.4372 5.79166ZM14.9997 7.91666C16.8783 7.91666 18.68 8.66294 20.0083 9.99132C21.3367 11.3197 22.083 13.1214 22.083 15C22.083 16.8786 21.3367 18.6803 20.0083 20.0087C18.68 21.3371 16.8783 22.0833 14.9997 22.0833C13.1211 22.0833 11.3194 21.3371 9.991 20.0087C8.66262 18.6803 7.91634 16.8786 7.91634 15C7.91634 13.1214 8.66262 11.3197 9.991 9.99132C11.3194 8.66294 13.1211 7.91666 14.9997 7.91666ZM14.9997 10.75C13.8725 10.75 12.7915 11.1978 11.9945 11.9948C11.1974 12.7918 10.7497 13.8728 10.7497 15C10.7497 16.1272 11.1974 17.2082 11.9945 18.0052C12.7915 18.8022 13.8725 19.25 14.9997 19.25C16.1268 19.25 17.2078 18.8022 18.0049 18.0052C18.8019 17.2082 19.2497 16.1272 19.2497 15C19.2497 13.8728 18.8019 12.7918 18.0049 11.9948C17.2078 11.1978 16.1268 10.75 14.9997 10.75Z" fill="white"/>
</svg>
