<svg width="13" height="19" viewBox="0 0 13 19" fill="none" xmlns="http://www.w3.org/2000/svg">
<path d="M10.6562 0H2.34375C1.36406 0 0.5625 0.801562 0.5625 1.78125V17.2188C0.5625 18.1984 1.36406 19 2.34375 19H10.6562C11.6359 19 12.4375 18.1984 12.4375 17.2188V1.78125C12.4375 0.801562 11.6359 0 10.6562 0ZM4.125 0.890625H8.875V1.48438H4.125V0.890625ZM6.5 17.8125C6.18506 17.8125 5.88301 17.6874 5.66031 17.4647C5.43761 17.242 5.3125 16.9399 5.3125 16.625C5.3125 16.3101 5.43761 16.008 5.66031 15.7853C5.88301 15.5626 6.18506 15.4375 6.5 15.4375C6.81494 15.4375 7.11699 15.5626 7.33969 15.7853C7.56239 16.008 7.6875 16.3101 7.6875 16.625C7.6875 16.9399 7.56239 17.242 7.33969 17.4647C7.11699 17.6874 6.81494 17.8125 6.5 17.8125ZM11.25 14.25H1.75V2.375H11.25V14.25Z" fill="white"/>
</svg>
