<svg width="15" height="17" viewBox="0 0 15 17" fill="none" xmlns="http://www.w3.org/2000/svg">
<path d="M7.5 0.1875C5.76841 0.189464 4.1083 0.878207 2.88388 2.10263C1.65946 3.32705 0.970714 4.98716 0.96875 6.71875C0.96875 12.3074 6.90625 16.5282 7.15934 16.7049C7.25917 16.7748 7.37811 16.8123 7.5 16.8123C7.62189 16.8123 7.74083 16.7748 7.84066 16.7049C8.09375 16.5282 14.0312 12.3074 14.0312 6.71875C14.0293 4.98716 13.3405 3.32705 12.1161 2.10263C10.8917 0.878207 9.23159 0.189464 7.5 0.1875ZM7.5 4.34375C7.96973 4.34375 8.42891 4.48304 8.81948 4.74401C9.21005 5.00498 9.51446 5.3759 9.69421 5.80988C9.87397 6.24385 9.92101 6.72138 9.82936 7.18209C9.73773 7.64279 9.51153 8.06598 9.17938 8.39813C8.84723 8.73028 8.42404 8.95648 7.96334 9.04811C7.50263 9.13976 7.0251 9.09272 6.59113 8.91296C6.15715 8.73321 5.78623 8.4288 5.52526 8.03823C5.26429 7.64766 5.125 7.18848 5.125 6.71875C5.125 6.08886 5.37522 5.48477 5.82062 5.03937C6.26602 4.59397 6.87011 4.34375 7.5 4.34375Z" fill="white"/>
</svg>
