<svg width="19" height="19" viewBox="0 0 19 19" fill="none" xmlns="http://www.w3.org/2000/svg">
<path d="M9.5 1.1875C7.76841 1.18946 6.1083 1.87821 4.88388 3.10263C3.65946 4.32705 2.97071 5.98716 2.96875 7.71875C2.96875 13.3074 8.90625 17.5282 9.15934 17.7049C9.25917 17.7748 9.37811 17.8123 9.5 17.8123C9.62189 17.8123 9.74083 17.7748 9.84066 17.7049C10.0937 17.5282 16.0312 13.3074 16.0312 7.71875C16.0293 5.98716 15.3405 4.32705 14.1161 3.10263C12.8917 1.87821 11.2316 1.18946 9.5 1.1875ZM9.5 5.34375C9.96973 5.34375 10.4289 5.48304 10.8195 5.74401C11.21 6.00498 11.5145 6.3759 11.6942 6.80988C11.874 7.24385 11.921 7.72138 11.8294 8.18209C11.7377 8.64279 11.5115 9.06598 11.1794 9.39813C10.8472 9.73028 10.424 9.95648 9.96334 10.0481C9.50263 10.1398 9.0251 10.0927 8.59113 9.91296C8.15715 9.73321 7.78623 9.4288 7.52526 9.03823C7.26429 8.64766 7.125 8.18848 7.125 7.71875C7.125 7.08886 7.37522 6.48477 7.82062 6.03937C8.26602 5.59397 8.87011 5.34375 9.5 5.34375Z" fill="white"/>
</svg>
