<svg width="19" height="19" viewBox="0 0 19 19" fill="none" xmlns="http://www.w3.org/2000/svg">
<path d="M13.6562 0H5.34375C4.36406 0 3.5625 0.801562 3.5625 1.78125V17.2188C3.5625 18.1984 4.36406 19 5.34375 19H13.6562C14.6359 19 15.4375 18.1984 15.4375 17.2188V1.78125C15.4375 0.801562 14.6359 0 13.6562 0ZM7.125 0.890625H11.875V1.48438H7.125V0.890625ZM9.5 17.8125C9.18506 17.8125 8.88301 17.6874 8.66031 17.4647C8.43761 17.242 8.3125 16.9399 8.3125 16.625C8.3125 16.3101 8.43761 16.008 8.66031 15.7853C8.88301 15.5626 9.18506 15.4375 9.5 15.4375C9.81494 15.4375 10.117 15.5626 10.3397 15.7853C10.5624 16.008 10.6875 16.3101 10.6875 16.625C10.6875 16.9399 10.5624 17.242 10.3397 17.4647C10.117 17.6874 9.81494 17.8125 9.5 17.8125ZM14.25 14.25H4.75V2.375H14.25V14.25Z" fill="white"/>
</svg>
