<svg width="24" height="26" viewBox="0 0 24 26" fill="none" xmlns="http://www.w3.org/2000/svg">
<path d="M18.5169 4.245C17.5485 3.13946 17.0148 1.7197 17.0152 0.25H12.6377V17.8167C12.604 18.7673 12.2026 19.6677 11.5182 20.3283C10.8338 20.9889 9.91977 21.3582 8.96855 21.3583C6.95689 21.3583 5.28522 19.715 5.28522 17.675C5.28522 15.2383 7.63689 13.4108 10.0594 14.1617V9.685C5.17189 9.03333 0.893555 12.83 0.893555 17.675C0.893555 22.3925 4.80356 25.75 8.95439 25.75C13.4027 25.75 17.0152 22.1375 17.0152 17.675V8.76417C18.7903 10.039 20.9215 10.7229 23.1069 10.7192V6.34167C23.1069 6.34167 20.4436 6.46917 18.5169 4.245Z" fill="white"/>
</svg>
